# xmcd
#
# Track frame offsets:
#	150
#	96894
#	105831
#	168368
#	211554
#	257599
#
# Disc length: 3872 seconds
#
# Revision: 0
# Processed by: cddbd v1.5.2PL0 Copyright (c) Steve Scherf et al.
# Submitted via: audiograbber 1.83.01
#
DISCID=3c0f1e06
DTITLE=Grateful Dead - 73-12-18 Curtis Hixon Convention Hall, Tampa FL
DYEAR=1900
DGENRE=
TTITLE0=Dark Star
TTITLE1=Drums
TTITLE2=Eyes Of The World
TTITLE3=Wharf Rat
TTITLE4=Sugar Magnolia
TTITLE5=Uncle John's Band
EXTD=
EXTT0=
EXTT1=
EXTT2=
EXTT3=
EXTT4=
EXTT5=
PLAYORDER=
